<?xml version="1.0" encoding="UTF-8" standalone="no"?>
<!DOCTYPE svg PUBLIC "-//W3C//DTD SVG 1.1//EN"
 "http://www.w3.org/Graphics/SVG/1.1/DTD/svg11.dtd">
<!-- Generated by graphviz version 14.1.2 (20260124.0452)
 -->
<!-- Title: Branch Pages: 1 -->
<svg width="764pt" height="86pt"
 viewBox="0.00 0.00 764.00 86.00" xmlns="http://www.w3.org/2000/svg" xmlns:xlink="http://www.w3.org/1999/xlink">
<g id="graph0" class="graph" transform="scale(1 1) rotate(0) translate(4 82.25)">
<title>Branch</title>
<polygon fill="white" stroke="none" points="-4,4 -4,-82.25 760.3,-82.25 760.3,4 -4,4"/>
<!-- start -->
<g id="node1" class="node">
<title>start</title>
<polygon fill="none" stroke="black" points="40.05,-37.25 0,-19.25 40.05,-1.25 80.1,-19.25 40.05,-37.25"/>
<polyline fill="none" stroke="black" points="10.95,-24.17 10.95,-14.33"/>
<polyline fill="none" stroke="black" points="29.11,-6.17 51,-6.17"/>
<polyline fill="none" stroke="black" points="69.16,-14.33 69.16,-24.17"/>
<polyline fill="none" stroke="black" points="51,-32.33 29.11,-32.33"/>
<text xml:space="preserve" text-anchor="middle" x="40.05" y="-14.2" font-family="Times,serif" font-size="14.00">Start</text>
</g>
<!-- plan -->
<g id="node3" class="node">
<title>plan</title>
<polygon fill="none" stroke="black" points="171.1,-37.25 117.1,-37.25 117.1,-1.25 171.1,-1.25 171.1,-37.25"/>
<text xml:space="preserve" text-anchor="middle" x="144.1" y="-14.2" font-family="Times,serif" font-size="14.00">Plan</text>
</g>
<!-- start&#45;&gt;plan -->
<g id="edge1" class="edge">
<title>start&#45;&gt;plan</title>
<path fill="none" stroke="black" d="M81.09,-19.25C89.03,-19.25 97.33,-19.25 105.2,-19.25"/>
<polygon fill="black" stroke="black" points="105.17,-22.75 115.17,-19.25 105.16,-15.75 105.17,-22.75"/>
</g>
<!-- exit -->
<g id="node2" class="node">
<title>exit</title>
<polygon fill="none" stroke="black" points="756.3,-38.5 717.8,-38.5 717.8,0 756.3,0 756.3,-38.5"/>
<polyline fill="none" stroke="black" points="729.8,-38.5 717.8,-26.5"/>
<polyline fill="none" stroke="black" points="717.8,-12 729.8,0"/>
<polyline fill="none" stroke="black" points="744.3,0 756.3,-12"/>
<polyline fill="none" stroke="black" points="756.3,-26.5 744.3,-38.5"/>
<text xml:space="preserve" text-anchor="middle" x="737.05" y="-14.2" font-family="Times,serif" font-size="14.00">Exit</text>
</g>
<!-- implement -->
<g id="node4" class="node">
<title>implement</title>
<polygon fill="none" stroke="black" points="284.1,-37.25 208.1,-37.25 208.1,-1.25 284.1,-1.25 284.1,-37.25"/>
<text xml:space="preserve" text-anchor="middle" x="246.1" y="-14.2" font-family="Times,serif" font-size="14.00">Implement</text>
</g>
<!-- plan&#45;&gt;implement -->
<g id="edge2" class="edge">
<title>plan&#45;&gt;implement</title>
<path fill="none" stroke="black" d="M171.38,-19.25C179.1,-19.25 187.81,-19.25 196.46,-19.25"/>
<polygon fill="black" stroke="black" points="196.21,-22.75 206.21,-19.25 196.21,-15.75 196.21,-22.75"/>
</g>
<!-- validate -->
<g id="node5" class="node">
<title>validate</title>
<polygon fill="none" stroke="black" points="441.67,-78.25 345.77,-78.25 321.1,-42.25 417,-42.25 441.67,-78.25"/>
<text xml:space="preserve" text-anchor="middle" x="381.38" y="-55.2" font-family="Times,serif" font-size="14.00">Validate</text>
</g>
<!-- implement&#45;&gt;validate -->
<g id="edge3" class="edge">
<title>implement&#45;&gt;validate</title>
<path fill="none" stroke="black" d="M284.58,-30.78C292.43,-33.19 300.95,-35.82 309.57,-38.47"/>
<polygon fill="black" stroke="black" points="308.46,-41.79 319.04,-41.38 310.51,-35.1 308.46,-41.79"/>
</g>
<!-- gate -->
<g id="node6" class="node">
<title>gate</title>
<polygon fill="none" stroke="black" points="570.11,-37.25 478.67,-19.25 570.11,-1.25 661.55,-19.25 570.11,-37.25"/>
<text xml:space="preserve" text-anchor="middle" x="570.11" y="-14.2" font-family="Times,serif" font-size="14.00">Tests passing?</text>
</g>
<!-- validate&#45;&gt;gate -->
<g id="edge4" class="edge">
<title>validate&#45;&gt;gate</title>
<path fill="none" stroke="black" d="M423.36,-51.25C449.99,-45.4 485.03,-37.71 514.08,-31.33"/>
<polygon fill="black" stroke="black" points="514.8,-34.76 523.82,-29.19 513.3,-27.92 514.8,-34.76"/>
</g>
<!-- gate&#45;&gt;exit -->
<g id="edge5" class="edge">
<title>gate&#45;&gt;exit</title>
<path fill="none" stroke="black" d="M663.7,-19.25C679.01,-19.25 693.85,-19.25 706.06,-19.25"/>
<polygon fill="black" stroke="black" points="705.81,-22.75 715.81,-19.25 705.81,-15.75 705.81,-22.75"/>
<text xml:space="preserve" text-anchor="middle" x="689.67" y="-22.45" font-family="Times,serif" font-size="14.00">Yes</text>
</g>
<!-- gate&#45;&gt;implement -->
<g id="edge6" class="edge">
<title>gate&#45;&gt;implement</title>
<path fill="none" stroke="black" d="M486.15,-17.3C437.97,-16.44 376.1,-15.82 321.1,-16.75 312.88,-16.89 304.15,-17.11 295.68,-17.37"/>
<polygon fill="black" stroke="black" points="295.75,-13.87 285.87,-17.7 295.98,-20.87 295.75,-13.87"/>
<text xml:space="preserve" text-anchor="middle" x="381.38" y="-19.95" font-family="Times,serif" font-size="14.00">No</text>
</g>
</g>
</svg>
